#define arrowdn_width 16
#define arrowdn_height 16
static unsigned char arrowdn_bits[] = {
   0x00, 0x00, 0x00, 0x00, 0xf0, 0x01, 0xf0, 0x01, 0x80, 0x01, 0x80, 0x01,
   0x80, 0x01, 0x80, 0x01, 0x80, 0x01, 0x80, 0x01, 0x80, 0x01, 0xe0, 0x07,
   0xc0, 0x03, 0x80, 0x01, 0x00, 0x00, 0x00, 0x00};
