#define bundle1_width 25
#define bundle1_height 15
static unsigned char bundle1_bits[] = {
   0x00, 0x00, 0xf0, 0x01, 0x00, 0x00, 0xf8, 0x01, 0x00, 0x00, 0xf8, 0x01,
   0x00, 0x00, 0xfc, 0x01, 0x00, 0x00, 0xfc, 0x01, 0x00, 0x00, 0xfe, 0x01,
   0x00, 0x00, 0xfe, 0x01, 0xff, 0x3f, 0xff, 0x01, 0x00, 0x80, 0xff, 0x01,
   0x00, 0x80, 0xff, 0x01, 0x00, 0xc0, 0xff, 0x01, 0x00, 0xc0, 0xff, 0x01,
   0x00, 0xe0, 0xff, 0x01, 0x00, 0xe0, 0xff, 0x01, 0x00, 0xf0, 0xff, 0x01};
