#define noise_width 21
#define noise_height 11
static unsigned char noise_bits[] = {
   0x00, 0x00, 0x00, 0x80, 0x40, 0x00, 0x88, 0x44, 0x02, 0xa8, 0xcc, 0x02,
   0xac, 0xce, 0x06, 0xff, 0xff, 0x1f, 0x52, 0x31, 0x09, 0x52, 0x11, 0x09,
   0x42, 0x10, 0x01, 0x40, 0x10, 0x00, 0x00, 0x00, 0x00};
