#define saw_width 21
#define saw_height 11
static unsigned char saw_bits[] = {
   0x00, 0x00, 0x00, 0x0c, 0x00, 0x04, 0x34, 0x00, 0x04, 0xc4, 0x00, 0x04,
   0x04, 0x03, 0x04, 0xff, 0xff, 0x1f, 0x04, 0x18, 0x04, 0x04, 0x60, 0x04,
   0x04, 0x80, 0x05, 0x04, 0x00, 0x06, 0x00, 0x00, 0x00};
