#define sine_width 21
#define sine_height 11
static unsigned char sine_bits[] = {
   0x00, 0x00, 0x00, 0xe0, 0x00, 0x00, 0x10, 0x01, 0x00, 0x08, 0x02, 0x00,
   0x08, 0x02, 0x00, 0xff, 0xff, 0x1f, 0x00, 0x04, 0x01, 0x00, 0x04, 0x01,
   0x00, 0x88, 0x00, 0x00, 0x70, 0x00, 0x00, 0x00, 0x00};
