#define unbundle_width 25
#define unbundle_height 15
static unsigned char unbundle_bits[] = {
   0xff, 0x1f, 0x00, 0x00, 0xff, 0x0f, 0x00, 0x00, 0xff, 0x0f, 0x00, 0x00,
   0xff, 0xe7, 0xff, 0x01, 0xff, 0x07, 0x00, 0x00, 0xff, 0x03, 0x00, 0x00,
   0xff, 0x03, 0x00, 0x00, 0xff, 0xf9, 0xff, 0x01, 0xff, 0x00, 0x00, 0x00,
   0xff, 0x00, 0x00, 0x00, 0x7f, 0x00, 0x00, 0x00, 0x7f, 0xfe, 0xff, 0x01,
   0x3f, 0x00, 0x00, 0x00, 0x3f, 0x00, 0x00, 0x00, 0x1f, 0x00, 0x00, 0x00};
